<?xml version="1.0" encoding="utf-8"?>
<!-- Generator: Adobe Illustrator 28.0.0, SVG Export Plug-In . SVG Version: 6.00 Build 0)  -->
<svg version="1.1" id="Layer_1" xmlns="http://www.w3.org/2000/svg" xmlns:xlink="http://www.w3.org/1999/xlink" x="0px" y="0px"
	 viewBox="0 0 88 304" style="enable-background:new 0 0 88 304;" xml:space="preserve">
<style type="text/css">
	.st0{fill:#EBEBEB;}
	.st1{fill:#1C1C1C;}
</style>
<path d="M88,222.8v74.7c-0.8,3.2-2.8,5.4-5.8,6.5H5.4c-2.7-1.1-4.5-3-5.4-5.6v-76.8c2-4.8,5.2-5.7,10.3-5.7c22.3,0,44.5,0,66.8,0
	C82.8,216,86.6,217.1,88,222.8z"/>
<g>
	<path class="st0" d="M62.8,50c-3.7,5.1-8.3,8.8-13.9,11.3c-10.6,3.2-19.6,2.1-27.1-3.4C8.2,48.2,5.5,31.7,14.3,17.3l6.3-6.5
		l1.7-1.1L25,8c0.4-0.1,0.6-0.2,0.6-0.4l4-1.4C40.7,2.9,52,5.9,59.9,14.4C69.1,24.4,69.6,38.3,62.8,50z M62.4,34
		c0-13.3-10.8-24.1-24.1-24.1S14.2,20.7,14.2,34S25,58.1,38.3,58.1S62.4,47.3,62.4,34z"/>
	<path class="st0" d="M38.2,30.2l4.5-4.9c0.8-0.9,2-1.2,3.1-0.8l0.7,0.2c1.7,0.6,1.9,1.6,0.7,2.9L42,33.5c-0.2,0.3-0.3,0.6,0,0.9
		l6,7.1c0.6,0.8,0.5,1.9-0.3,2.5l-0.4,0.3c-1.3,0.9-3,0.7-4-0.5l-5-5.8c-0.2-0.3-0.7-0.3-0.9,0l-4.7,5.6c-1.1,1.3-2.4,1.6-3.9,0.9
		L28,43.9c-0.9-0.4-1.1-1.5-0.5-2.3l6-7.1c0.2-0.3,0.2-0.8,0-1l-5.4-6c-0.7-0.8-0.4-2.1,0.6-2.4l0.6-0.2c1.5-0.5,2.9-0.2,4,1
		l4.1,4.5C37.6,30.5,37.9,30.5,38.2,30.2z"/>
	<path class="st0" d="M57.8,87.8c2.7,3.9,4.4,8.1,5.3,12.7c1.4,14.5-4.1,24.8-16.4,30.9c-7.7,3.8-15.9,3.9-24.5,0.2
		c-6.8-3.2-11.8-8.3-14.9-15.4C-5.2,84.3,36.6,60.7,57.8,87.8z M58.4,105c0-13.3-10.8-24.1-24.1-24.1S10.2,91.7,10.2,105
		s10.8,24.1,24.1,24.1S58.4,118.3,58.4,105z"/>
	<path class="st0" d="M33.3,105.6l6.1,6.1c1.4,1.4,1.4,2.8,0,4.1l-0.5,0.5c-0.9,0.9-2.3,0.9-3.1,0l-9.7-9.4c-1-0.9-1-2.4,0-3.3
		l9.1-8.9c1.4-1.3,2.8-1.4,4.2-0.1l0.4,0.4c1,0.9,1,2.4,0.1,3.3l-6.5,6.5C33.1,105.1,33.1,105.4,33.3,105.6z"/>
	<path class="st0" d="M57.5,159.3c2.8,3.9,4.7,8.3,5.8,13.1c1.3,14.9-4.4,25.3-17.1,31.2c-8.6,4-17.6,3.4-27.1-1.6
		c-5.1-3.4-9-8-11.8-13.8c-4.6-13.9-1.6-25.3,9.1-34.1c3.1-2.6,6.8-4.3,11.1-5.3C38.9,146.1,50,150.1,57.5,159.3z M58.4,177
		c0-13.3-10.8-24.1-24.1-24.1S10.2,163.7,10.2,177s10.8,24.1,24.1,24.1S58.4,190.3,58.4,177z"/>
	<path class="st0" d="M36.1,177.6c0.2-0.2,0.2-0.4,0-0.6l-6.5-6.5c-0.9-0.9-1-2.4-0.1-3.4l0.4-0.4c1.1-1.2,2.9-1.2,4.1-0.1l9.3,9.1
		c0.9,0.9,0.9,2.4,0,3.3l-9.6,9.4c-1.1,1.1-2.2,1.1-3.4,0.1l-0.5-0.5c-1.2-1.1-1.2-2.9-0.1-4L36.1,177.6z"/>
</g>
<g>
	<path class="st1" d="M62.4,34c0,13.3-10.8,24.1-24.1,24.1S14.2,47.3,14.2,34S25,9.9,38.3,9.9S62.4,20.7,62.4,34z M37.3,30.2
		l-4.1-4.5c-1.1-1.2-2.4-1.5-4-1L28.6,25c-1,0.4-1.3,1.6-0.6,2.4l5.4,6c0.3,0.3,0.3,0.8,0,1l-6,7.1c-0.6,0.8-0.4,1.9,0.5,2.3
		l0.8,0.4c1.5,0.7,2.8,0.4,3.9-0.9l4.7-5.6c0.2-0.3,0.7-0.3,0.9,0l5,5.8c1,1.2,2.7,1.4,4,0.5l0.4-0.3c0.8-0.6,1-1.7,0.3-2.5l-6-7.1
		c-0.2-0.3-0.2-0.6,0-0.9l5.2-5.8c1.2-1.3,1-2.3-0.7-2.9l-0.7-0.2c-1.1-0.4-2.3-0.1-3.1,0.8l-4.5,4.9C37.9,30.5,37.6,30.5,37.3,30.2
		z"/>
	<path class="st1" d="M58.4,105c0,13.3-10.8,24.1-24.1,24.1S10.2,118.3,10.2,105S21,80.9,34.3,80.9S58.4,91.7,58.4,105z M33.3,104.8
		l6.5-6.5c0.9-0.9,0.9-2.5-0.1-3.3l-0.4-0.4c-1.4-1.3-2.8-1.2-4.2,0.1l-9.1,8.9c-0.9,0.9-0.9,2.4,0,3.3l9.7,9.4
		c0.9,0.9,2.3,0.9,3.1,0l0.5-0.5c1.4-1.4,1.4-2.7,0-4.1l-6.1-6.1C33.1,105.4,33.1,105.1,33.3,104.8z"/>
	<path class="st1" d="M58.4,177c0,13.3-10.8,24.1-24.1,24.1S10.2,190.3,10.2,177s10.8-24.1,24.1-24.1S58.4,163.7,58.4,177z
		 M36.1,177.6l-6.4,6.4c-1.1,1.1-1.1,3,0.1,4l0.5,0.5c1.1,1,2.3,1,3.4-0.1l9.6-9.4c0.9-0.9,0.9-2.4,0-3.3l-9.3-9.1
		c-1.2-1.1-3-1.1-4.1,0.1l-0.4,0.4c-0.9,1-0.9,2.5,0.1,3.4l6.5,6.5C36.2,177.1,36.2,177.4,36.1,177.6z"/>
</g>
</svg>
